ffmpeg started on 2025-05-12 at 14:35:52
Report written to "D:\Convert\FFMetrics\reports\ssim_report-6.txt"
Log level: 32
Command line:
ffmpeg -hide_banner -nostdin -i "G:\\\xc0\xed\xe8\xec\xe5\\\xce\xed\xe3\xee\xe8\xed\xe3\xe8\\!_35_\xcb\xe5\xf2\xee_2024\\DreamCast\\\xc4\xe8\xf1\xea\xe2\xe0\xeb\xe8\xf4\xe8\xf6\xe8\xf0\xee\xe2\xe0\xed \xef\xee \xe6\xe8\xe7\xed\xe8\\[DC] Isekai Shikkaku - 02_Telegram_HEVC.mkv" -i "G:\\\xc0\xed\xe8\xec\xe5\\\xce\xed\xe3\xee\xe8\xed\xe3\xe8\\!_35_\xcb\xe5\xf2\xee_2024\\DreamCast\\\xc4\xe8\xf1\xea\xe2\xe0\xeb\xe8\xf4\xe8\xf6\xe8\xf0\xee\xe2\xe0\xed \xef\xee \xe6\xe8\xe7\xed\xe8\\[DC] Isekai Shikkaku - 02_Telegram.mp4" -lavfi "[0:v]settb=AVTB,setpts=PTS-STARTPTS,format=pix_fmts=yuv420p10,fps=24000/1001,scale=1920:1080:flags=bicubic[main];[1:v]settb=AVTB,setpts=PTS-STARTPTS,format=pix_fmts=yuv420p,fps=24000/1001,scale=1920:1080:flags=bicubic[ref];[main][ref]ssim=eof_action=endall:stats_file='D\\:/Convert/FFMetrics/logs/ssim_logfile-6.txt'" -f null -
Input #0, matroska,webm, from 'G:\Аниме\Онгоинги\!_35_Лето_2024\DreamCast\Дисквалифицирован по жизни\[DC] Isekai Shikkaku - 02_Telegram_HEVC.mkv':
  Metadata:
    COMPATIBLE_BRANDS: isomiso2avc1mp41
    MAJOR_BRAND     : isom
    MINOR_VERSION   : 512
    ENCODER         : Lavf61.7.100
  Duration: 00:23:46.65, start: -0.021000, bitrate: 1078 kb/s
  Stream #0:0: Video: hevc (Main 10), yuv420p10le(tv, bt709, progressive), 1920x1080 [SAR 1:1 DAR 16:9], 23.98 fps, 23.98 tbr, 1k tbn (default)
      Metadata:
        HANDLER_NAME    : VideoHandler
        VENDOR_ID       : [0][0][0][0]
        ENCODER         : Lavc61.19.100 libx265
        BPS             : 881131
        DURATION        : 00:23:46.549708333
        NUMBER_OF_FRAMES: 34203
        NUMBER_OF_BYTES : 157122134
        _STATISTICS_WRITING_APP: mkvpropedit v66.0.0 ('Josie') 64-bit
        _STATISTICS_WRITING_DATE_UTC: 2025-05-07 10:03:34
        _STATISTICS_TAGS: BPS DURATION NUMBER_OF_FRAMES NUMBER_OF_BYTES
  Stream #0:1: Audio: aac (LC), 48000 Hz, stereo, fltp (default)
      Metadata:
        HANDLER_NAME    : SoundHandler
        VENDOR_ID       : [0][0][0][0]
        ENCODER         : Lavc61.19.100 aac
        BPS             : 193305
        DURATION        : 00:23:46.645000000
        NUMBER_OF_FRAMES: 66875
        NUMBER_OF_BYTES : 34472229
        _STATISTICS_WRITING_APP: mkvpropedit v66.0.0 ('Josie') 64-bit
        _STATISTICS_WRITING_DATE_UTC: 2025-05-07 10:03:34
        _STATISTICS_TAGS: BPS DURATION NUMBER_OF_FRAMES NUMBER_OF_BYTES
Input #1, mov,mp4,m4a,3gp,3g2,mj2, from 'G:\Аниме\Онгоинги\!_35_Лето_2024\DreamCast\Дисквалифицирован по жизни\[DC] Isekai Shikkaku - 02_Telegram.mp4':
  Metadata:
    major_brand     : isom
    minor_version   : 512
    compatible_brands: isomiso2avc1mp41
    encoder         : Lavf61.1.100
  Duration: 00:23:46.62, start: 0.000000, bitrate: 3788 kb/s
  Stream #1:0[0x1](und): Video: h264 (High) (avc1 / 0x31637661), yuv420p(tv, bt709, progressive), 1920x1080 [SAR 1:1 DAR 16:9], 3640 kb/s, 23.98 fps, 23.98 tbr, 24k tbn (default)
      Metadata:
        handler_name    : VideoHandler
        vendor_id       : [0][0][0][0]
        encoder         : Lavc61.3.100 h264_qsv
  Stream #1:1[0x2](und): Audio: aac (HE-AACv2) (mp4a / 0x6134706D), 48000 Hz, stereo, fltp, 144 kb/s (default)
      Metadata:
        handler_name    : SoundHandler
        vendor_id       : [0][0][0][0]
Stream mapping:
  Stream #0:0 (hevc) -> settb:default
  Stream #1:0 (h264) -> settb:default
  ssim:default -> Stream #0:0 (wrapped_avframe)
  Stream #0:1 -> #0:1 (aac (native) -> pcm_s16le (native))
Output #0, null, to 'pipe:':
  Metadata:
    COMPATIBLE_BRANDS: isomiso2avc1mp41
    MAJOR_BRAND     : isom
    MINOR_VERSION   : 512
    encoder         : Lavf61.7.100
  Stream #0:0: Video: wrapped_avframe, yuv420p10le(tv, bt709, progressive), 1920x1080 [SAR 1:1 DAR 16:9], q=2-31, 200 kb/s, 23.98 fps, 23.98 tbn
      Metadata:
        encoder         : Lavc61.19.100 wrapped_avframe
  Stream #0:1: Audio: pcm_s16le, 48000 Hz, stereo, s16, 1536 kb/s (default)
      Metadata:
        HANDLER_NAME    : SoundHandler
        VENDOR_ID       : [0][0][0][0]
        _STATISTICS_TAGS: BPS DURATION NUMBER_OF_FRAMES NUMBER_OF_BYTES
        BPS             : 193305
        DURATION        : 00:23:46.645000000
        NUMBER_OF_FRAMES: 66875
        NUMBER_OF_BYTES : 34472229
        _STATISTICS_WRITING_APP: mkvpropedit v66.0.0 ('Josie') 64-bit
        _STATISTICS_WRITING_DATE_UTC: 2025-05-07 10:03:34
        encoder         : Lavc61.19.100 pcm_s16le
frame=  156 fps=0.0 q=-0.0 size=N/A time=00:00:06.50 bitrate=N/A speed=12.8x    frame=  386 fps=373 q=-0.0 size=N/A time=00:00:16.09 bitrate=N/A speed=15.6x    frame=  641 fps=415 q=-0.0 size=N/A time=00:00:26.73 bitrate=N/A speed=17.3x    frame=  914 fps=442 q=-0.0 size=N/A time=00:00:38.12 bitrate=N/A speed=18.5x    frame= 1162 fps=452 q=-0.0 size=N/A time=00:00:48.46 bitrate=N/A speed=18.8x    frame= 1425 fps=460 q=-0.0 size=N/A time=00:00:59.43 bitrate=N/A speed=19.2x    frame= 1633 fps=453 q=-0.0 size=N/A time=00:01:08.10 bitrate=N/A speed=18.9x    frame= 1837 fps=445 q=-0.0 size=N/A time=00:01:16.61 bitrate=N/A speed=18.6x    frame= 2007 fps=433 q=-0.0 size=N/A time=00:01:23.70 bitrate=N/A speed=18.1x    frame= 2224 fps=431 q=-0.0 size=N/A time=00:01:32.75 bitrate=N/A speed=  18x    frame= 2393 fps=423 q=-0.0 size=N/A time=00:01:39.80 bitrate=N/A speed=17.6x    frame= 2609 fps=422 q=-0.0 size=N/A time=00:01:48.81 bitrate=N/A speed=17.6x    frame= 2784 fps=416 q=-0.0 size=N/A time=00:01:56.11 bitrate=N/A speed=17.4x    frame= 2952 fps=409 q=-0.0 size=N/A time=00:02:03.12 bitrate=N/A speed=17.1x    frame= 3189 fps=412 q=-0.0 size=N/A time=00:02:13.00 bitrate=N/A speed=17.2x    frame= 3419 fps=414 q=-0.0 size=N/A time=00:02:22.60 bitrate=N/A speed=17.3x    frame= 3632 fps=415 q=-0.0 size=N/A time=00:02:31.48 bitrate=N/A speed=17.3x    frame= 3894 fps=419 q=-0.0 size=N/A time=00:02:42.41 bitrate=N/A speed=17.5x    frame= 4102 fps=419 q=-0.0 size=N/A time=00:02:51.08 bitrate=N/A speed=17.5x    frame= 4326 fps=419 q=-0.0 size=N/A time=00:03:00.43 bitrate=N/A speed=17.5x    frame= 4560 fps=421 q=-0.0 size=N/A time=00:03:10.19 bitrate=N/A speed=17.6x    frame= 4793 fps=423 q=-0.0 size=N/A time=00:03:19.90 bitrate=N/A speed=17.6x    frame= 5063 fps=427 q=-0.0 size=N/A time=00:03:31.16 bitrate=N/A speed=17.8x    frame= 5320 fps=430 q=-0.0 size=N/A time=00:03:41.88 bitrate=N/A speed=17.9x    frame= 5563 fps=431 q=-0.0 size=N/A time=00:03:52.02 bitrate=N/A speed=  18x    frame= 5804 fps=433 q=-0.0 size=N/A time=00:04:02.07 bitrate=N/A speed=18.1x    frame= 6063 fps=435 q=-0.0 size=N/A time=00:04:12.87 bitrate=N/A speed=18.2x    frame= 6313 fps=437 q=-0.0 size=N/A time=00:04:23.30 bitrate=N/A speed=18.2x    frame= 6559 fps=439 q=-0.0 size=N/A time=00:04:33.56 bitrate=N/A speed=18.3x    frame= 6781 fps=439 q=-0.0 size=N/A time=00:04:42.82 bitrate=N/A speed=18.3x    frame= 7033 fps=440 q=-0.0 size=N/A time=00:04:53.33 bitrate=N/A speed=18.3x    frame= 7303 fps=442 q=-0.0 size=N/A time=00:05:04.59 bitrate=N/A speed=18.4x    frame= 7570 fps=444 q=-0.0 size=N/A time=00:05:15.73 bitrate=N/A speed=18.5x    frame= 7770 fps=443 q=-0.0 size=N/A time=00:05:24.07 bitrate=N/A speed=18.5x    frame= 8008 fps=444 q=-0.0 size=N/A time=00:05:34.00 bitrate=N/A speed=18.5x    frame= 8260 fps=445 q=-0.0 size=N/A time=00:05:44.51 bitrate=N/A speed=18.5x    frame= 8506 fps=446 q=-0.0 size=N/A time=00:05:54.77 bitrate=N/A speed=18.6x    frame= 8734 fps=445 q=-0.0 size=N/A time=00:06:04.28 bitrate=N/A speed=18.6x    frame= 8986 fps=447 q=-0.0 size=N/A time=00:06:14.79 bitrate=N/A speed=18.6x    frame= 9248 fps=448 q=-0.0 size=N/A time=00:06:25.71 bitrate=N/A speed=18.7x    frame= 9509 fps=449 q=-0.0 size=N/A time=00:06:36.60 bitrate=N/A speed=18.7x    frame= 9781 fps=451 q=-0.0 size=N/A time=00:06:47.94 bitrate=N/A speed=18.8x    frame=10042 fps=453 q=-0.0 size=N/A time=00:06:58.83 bitrate=N/A speed=18.9x    frame=10302 fps=454 q=-0.0 size=N/A time=00:07:09.67 bitrate=N/A speed=18.9x    frame=10527 fps=453 q=-0.0 size=N/A time=00:07:19.06 bitrate=N/A speed=18.9x    frame=10778 fps=454 q=-0.0 size=N/A time=00:07:29.53 bitrate=N/A speed=18.9x    frame=11040 fps=455 q=-0.0 size=N/A time=00:07:40.46 bitrate=N/A speed=  19x    frame=11280 fps=455 q=-0.0 size=N/A time=00:07:50.47 bitrate=N/A speed=  19x    frame=11523 fps=455 q=-0.0 size=N/A time=00:08:00.60 bitrate=N/A speed=  19x    frame=11776 fps=456 q=-0.0 size=N/A time=00:08:11.15 bitrate=N/A speed=  19x    frame=12025 fps=457 q=-0.0 size=N/A time=00:08:21.54 bitrate=N/A speed=  19x    frame=12292 fps=458 q=-0.0 size=N/A time=00:08:32.67 bitrate=N/A speed=19.1x    frame=12540 fps=458 q=-0.0 size=N/A time=00:08:43.02 bitrate=N/A speed=19.1x    frame=12795 fps=459 q=-0.0 size=N/A time=00:08:53.65 bitrate=N/A speed=19.1x    frame=13056 fps=460 q=-0.0 size=N/A time=00:09:04.54 bitrate=N/A speed=19.2x    frame=13321 fps=461 q=-0.0 size=N/A time=00:09:15.59 bitrate=N/A speed=19.2x    frame=13561 fps=461 q=-0.0 size=N/A time=00:09:25.60 bitrate=N/A speed=19.2x    frame=13822 fps=462 q=-0.0 size=N/A time=00:09:36.49 bitrate=N/A speed=19.3x    frame=14105 fps=463 q=-0.0 size=N/A time=00:09:48.29 bitrate=N/A speed=19.3x    frame=14351 fps=463 q=-0.0 size=N/A time=00:09:58.55 bitrate=N/A speed=19.3x    frame=14605 fps=464 q=-0.0 size=N/A time=00:10:09.15 bitrate=N/A speed=19.3x    frame=14862 fps=464 q=-0.0 size=N/A time=00:10:19.86 bitrate=N/A speed=19.4x    frame=15126 fps=465 q=-0.0 size=N/A time=00:10:30.88 bitrate=N/A speed=19.4x    frame=15388 fps=466 q=-0.0 size=N/A time=00:10:41.80 bitrate=N/A speed=19.4x    frame=15656 fps=466 q=-0.0 size=N/A time=00:10:52.98 bitrate=N/A speed=19.4x    frame=15889 fps=466 q=-0.0 size=N/A time=00:11:02.70 bitrate=N/A speed=19.4x    frame=16126 fps=466 q=-0.0 size=N/A time=00:11:12.58 bitrate=N/A speed=19.4x    frame=16339 fps=465 q=-0.0 size=N/A time=00:11:21.47 bitrate=N/A speed=19.4x    frame=16474 fps=462 q=-0.0 size=N/A time=00:11:27.10 bitrate=N/A speed=19.3x    frame=16659 fps=461 q=-0.0 size=N/A time=00:11:34.81 bitrate=N/A speed=19.2x    frame=16915 fps=461 q=-0.0 size=N/A time=00:11:45.49 bitrate=N/A speed=19.2x    frame=17157 fps=461 q=-0.0 size=N/A time=00:11:55.58 bitrate=N/A speed=19.2x    frame=17389 fps=461 q=-0.0 size=N/A time=00:12:05.26 bitrate=N/A speed=19.2x    frame=17634 fps=461 q=-0.0 size=N/A time=00:12:15.48 bitrate=N/A speed=19.2x    frame=17885 fps=462 q=-0.0 size=N/A time=00:12:25.95 bitrate=N/A speed=19.3x    frame=18138 fps=462 q=-0.0 size=N/A time=00:12:36.50 bitrate=N/A speed=19.3x    frame=18361 fps=462 q=-0.0 size=N/A time=00:12:45.80 bitrate=N/A speed=19.3x    frame=18623 fps=462 q=-0.0 size=N/A time=00:12:56.73 bitrate=N/A speed=19.3x    frame=18862 fps=462 q=-0.0 size=N/A time=00:13:06.70 bitrate=N/A speed=19.3x    frame=19090 fps=462 q=-0.0 size=N/A time=00:13:16.21 bitrate=N/A speed=19.3x    frame=19321 fps=462 q=-0.0 size=N/A time=00:13:25.84 bitrate=N/A speed=19.3x    frame=19589 fps=462 q=-0.0 size=N/A time=00:13:37.02 bitrate=N/A speed=19.3x    frame=19846 fps=463 q=-0.0 size=N/A time=00:13:47.74 bitrate=N/A speed=19.3x    frame=20065 fps=462 q=-0.0 size=N/A time=00:13:56.87 bitrate=N/A speed=19.3x    frame=20286 fps=462 q=-0.0 size=N/A time=00:14:06.09 bitrate=N/A speed=19.3x    frame=20503 fps=462 q=-0.0 size=N/A time=00:14:15.14 bitrate=N/A speed=19.3x    frame=20710 fps=461 q=-0.0 size=N/A time=00:14:23.77 bitrate=N/A speed=19.2x    frame=20911 fps=460 q=-0.0 size=N/A time=00:14:32.16 bitrate=N/A speed=19.2x    frame=21125 fps=460 q=-0.0 size=N/A time=00:14:41.08 bitrate=N/A speed=19.2x    frame=21318 fps=459 q=-0.0 size=N/A time=00:14:49.13 bitrate=N/A speed=19.1x    frame=21501 fps=457 q=-0.0 size=N/A time=00:14:56.77 bitrate=N/A speed=19.1x    frame=21672 fps=456 q=-0.0 size=N/A time=00:15:03.90 bitrate=N/A speed=  19x    frame=21872 fps=455 q=-0.0 size=N/A time=00:15:12.24 bitrate=N/A speed=  19x    frame=22105 fps=455 q=-0.0 size=N/A time=00:15:21.96 bitrate=N/A speed=  19x    frame=22349 fps=456 q=-0.0 size=N/A time=00:15:32.13 bitrate=N/A speed=  19x    frame=22587 fps=456 q=-0.0 size=N/A time=00:15:42.06 bitrate=N/A speed=  19x    frame=22845 fps=456 q=-0.0 size=N/A time=00:15:52.82 bitrate=N/A speed=  19x    frame=23119 fps=457 q=-0.0 size=N/A time=00:16:04.25 bitrate=N/A speed=19.1x    frame=23399 fps=458 q=-0.0 size=N/A time=00:16:15.93 bitrate=N/A speed=19.1x    frame=23668 fps=458 q=-0.0 size=N/A time=00:16:27.15 bitrate=N/A speed=19.1x    frame=23921 fps=459 q=-0.0 size=N/A time=00:16:37.70 bitrate=N/A speed=19.1x    frame=24202 fps=459 q=-0.0 size=N/A time=00:16:49.42 bitrate=N/A speed=19.2x    frame=24463 fps=460 q=-0.0 size=N/A time=00:17:00.31 bitrate=N/A speed=19.2x    frame=24724 fps=460 q=-0.0 size=N/A time=00:17:11.19 bitrate=N/A speed=19.2x    frame=24898 fps=459 q=-0.0 size=N/A time=00:17:18.45 bitrate=N/A speed=19.2x    frame=25091 fps=458 q=-0.0 size=N/A time=00:17:26.50 bitrate=N/A speed=19.1x    frame=25339 fps=459 q=-0.0 size=N/A time=00:17:36.84 bitrate=N/A speed=19.1x    frame=25586 fps=459 q=-0.0 size=N/A time=00:17:47.14 bitrate=N/A speed=19.1x    frame=25831 fps=459 q=-0.0 size=N/A time=00:17:57.36 bitrate=N/A speed=19.1x    frame=26059 fps=459 q=-0.0 size=N/A time=00:18:06.87 bitrate=N/A speed=19.1x    frame=26247 fps=458 q=-0.0 size=N/A time=00:18:14.71 bitrate=N/A speed=19.1x    frame=26437 fps=457 q=-0.0 size=N/A time=00:18:22.64 bitrate=N/A speed=19.1x    frame=26640 fps=456 q=-0.0 size=N/A time=00:18:31.11 bitrate=N/A speed=  19x    frame=26832 fps=456 q=-0.0 size=N/A time=00:18:39.11 bitrate=N/A speed=  19x    frame=27048 fps=455 q=-0.0 size=N/A time=00:18:48.12 bitrate=N/A speed=  19x    frame=27255 fps=455 q=-0.0 size=N/A time=00:18:56.76 bitrate=N/A speed=  19x    frame=27492 fps=455 q=-0.0 size=N/A time=00:19:06.64 bitrate=N/A speed=  19x    frame=27742 fps=455 q=-0.0 size=N/A time=00:19:17.07 bitrate=N/A speed=  19x    frame=28003 fps=456 q=-0.0 size=N/A time=00:19:27.95 bitrate=N/A speed=  19x    frame=28249 fps=456 q=-0.0 size=N/A time=00:19:38.21 bitrate=N/A speed=  19x    frame=28518 fps=456 q=-0.0 size=N/A time=00:19:49.43 bitrate=N/A speed=  19x    frame=28784 fps=457 q=-0.0 size=N/A time=00:20:00.53 bitrate=N/A speed=19.1x    frame=29041 fps=457 q=-0.0 size=N/A time=00:20:11.25 bitrate=N/A speed=19.1x    frame=29301 fps=458 q=-0.0 size=N/A time=00:20:22.09 bitrate=N/A speed=19.1x    frame=29537 fps=458 q=-0.0 size=N/A time=00:20:31.93 bitrate=N/A speed=19.1x    frame=29750 fps=457 q=-0.0 size=N/A time=00:20:40.82 bitrate=N/A speed=19.1x    frame=29966 fps=457 q=-0.0 size=N/A time=00:20:49.83 bitrate=N/A speed=19.1x    frame=30224 fps=457 q=-0.0 size=N/A time=00:21:00.59 bitrate=N/A speed=19.1x    frame=30432 fps=457 q=-0.0 size=N/A time=00:21:09.26 bitrate=N/A speed=19.1x    frame=30625 fps=456 q=-0.0 size=N/A time=00:21:17.31 bitrate=N/A speed=  19x    frame=30895 fps=457 q=-0.0 size=N/A time=00:21:28.57 bitrate=N/A speed=19.1x    frame=31110 fps=456 q=-0.0 size=N/A time=00:21:37.54 bitrate=N/A speed=  19x    frame=31355 fps=457 q=-0.0 size=N/A time=00:21:47.76 bitrate=N/A speed=  19x    frame=31583 fps=457 q=-0.0 size=N/A time=00:21:57.27 bitrate=N/A speed=  19x    frame=31777 fps=456 q=-0.0 size=N/A time=00:22:05.36 bitrate=N/A speed=  19x    frame=31992 fps=456 q=-0.0 size=N/A time=00:22:14.33 bitrate=N/A speed=  19x    frame=32215 fps=455 q=-0.0 size=N/A time=00:22:23.63 bitrate=N/A speed=  19x    frame=32450 fps=456 q=-0.0 size=N/A time=00:22:33.43 bitrate=N/A speed=  19x    frame=32678 fps=455 q=-0.0 size=N/A time=00:22:42.94 bitrate=N/A speed=  19x    frame=32871 fps=455 q=-0.0 size=N/A time=00:22:50.99 bitrate=N/A speed=  19x    frame=33097 fps=455 q=-0.0 size=N/A time=00:23:00.42 bitrate=N/A speed=  19x    frame=33326 fps=455 q=-0.0 size=N/A time=00:23:09.97 bitrate=N/A speed=  19x    frame=33573 fps=455 q=-0.0 size=N/A time=00:23:20.27 bitrate=N/A speed=  19x    frame=33802 fps=455 q=-0.0 size=N/A time=00:23:29.82 bitrate=N/A speed=  19x    frame=34033 fps=455 q=-0.0 size=N/A time=00:23:39.45 bitrate=N/A speed=  19x    [Parsed_ssim_10 @ 00000180cd5fb440] SSIM Y:0.994748 (22.796620) U:0.991375 (20.642375) V:0.992175 (21.065066) All:0.993757 (22.045965)
[out#0/null @ 00000180cd8b1440] video:14697KiB audio:267500KiB subtitle:0KiB other streams:0KiB global headers:0KiB muxing overhead: unknown
frame=34203 fps=455 q=-0.0 Lsize=N/A time=00:23:46.55 bitrate=N/A speed=  19x    
